# xmcd
#
# Track frame offsets:
#	150
#	16588
#	51239
#	71324
#	85039
#	96309
#	115901
#	124856
#	147726
#	181821
#	199286
#	221384
#	234389
#	264469
#	290349
#	316877
#
# Disc length: 4400 seconds
#
# Revision: 0
# Processed by: cddbd v1.4PL0 Copyright (c) Steve Scherf et al.
# Submitted via: EasyCDDAExtractor 5.0.0.0
#
DISCID=e2112e10
DTITLE=Gary Moore - O' My God Not Again
DYEAR=1900
DGENRE=Blues
TTITLE0=All Your Love
TTITLE1=As The Years Go Passing By
TTITLE2=Cold Day In Hell
TTITLE3=Don't Start Me Talking
TTITLE4=Don't You Lie To Me
TTITLE5=Jumpin' At Shadows
TTITLE6=Key To Love
TTITLE7=Nothing's The Same
TTITLE8=Once In A Blue Mood
TTITLE9=Only Fool In Town
TTITLE10=Separate Ways
TTITLE11=Since I Met You Baby
TTITLE12=Story Of The Blues
TTITLE13=The Blues Is Alright
TTITLE14=The Hurt Inside
TTITLE15=Walking By Myself
EXTD=
EXTT0=
EXTT1=
EXTT2=
EXTT3=
EXTT4=
EXTT5=
EXTT6=
EXTT7=
EXTT8=
EXTT9=
EXTT10=
EXTT11=
EXTT12=
EXTT13=
EXTT14=
EXTT15=
PLAYORDER=
